<?xml version="1.0" encoding="UTF-8"?>
<svg width="8px" height="8px" viewBox="0 0 8 8" version="1.1" xmlns="http://www.w3.org/2000/svg" xmlns:xlink="http://www.w3.org/1999/xlink">
    <!-- Generator: Sketch 41.2 (35397) - http://www.bohemiancoding.com/sketch -->
    <title>Combined Shape</title>
    <desc>Created with Sketch.</desc>
    <defs></defs>
    <g id="Page-1" stroke="none" stroke-width="1" fill="none" fill-rule="evenodd">
        <g id="Upstreamr-Display-Results" transform="translate(-38.000000, -171.000000)" fill="#000000">
            <g id="Fastest-Downstream" transform="translate(18.000000, 113.000000)">
                <g id="wait-time" transform="translate(20.000000, 55.000000)">
                    <g id="Group" transform="translate(0.000000, 3.000000)">
                        <path d="M4,8 C1.79436364,8 0,6.20563636 0,4 C0,1.79436364 1.79436364,0 4,0 C6.20563636,0 8,1.79436364 8,4 C8,6.20563636 6.20563636,8 4,8 Z M4,0.727272727 C2.19545455,0.727272727 0.727272727,2.19545455 0.727272727,4 C0.727272727,5.80454545 2.19545455,7.27272727 4,7.27272727 C5.80454545,7.27272727 7.27272727,5.80454545 7.27272727,4 C7.27272727,2.19545455 5.80454545,0.727272727 4,0.727272727 Z M3.27254545,5.81818182 C3.21781818,5.81818182 3.16236364,5.806 3.11018182,5.77981818 C2.93054545,5.69 2.85781818,5.47163636 2.94745455,5.29181818 L3.63636364,3.91418182 L3.63636364,1.81818182 C3.63636364,1.61745455 3.79927273,1.45454545 4,1.45454545 C4.20072727,1.45454545 4.36363636,1.61745455 4.36363636,1.81818182 L4.36363636,4 C4.36363636,4.05654545 4.35054545,4.11218182 4.32527273,4.16272727 L3.598,5.61727273 C3.53418182,5.74472727 3.40581818,5.81818182 3.27254545,5.81818182 Z" id="Combined-Shape"></path>
                    </g>
                </g>
            </g>
        </g>
    </g>
</svg>